<svg width="563" height="163" viewBox="0 0 563 163" fill="none" xmlns="http://www.w3.org/2000/svg">
    <path
        d="M174.307 130.02C176.147 128.652 178.733 128.956 180.126 130.78C181.518 132.603 183.309 134.173 185.149 135.287C188.033 137.01 191.216 137.871 194.647 137.871C195.94 137.871 197.184 137.719 198.278 137.364C199.372 137.01 200.317 136.554 201.112 135.997C201.908 135.439 202.505 134.781 202.952 134.072C203.4 133.312 203.649 132.552 203.649 131.691C203.649 130.678 203.4 129.817 202.903 129.108C202.405 128.399 201.659 127.74 200.715 127.183C199.77 126.576 198.526 126.018 196.985 125.411C195.443 124.803 193.553 124.195 191.365 123.486C188.232 122.321 185.099 121.105 182.065 119.89C179.032 118.674 176.346 117.154 174.059 115.382C171.771 113.609 169.881 111.38 168.439 108.696C166.997 106.062 166.251 102.719 166.251 98.7176C166.251 95.1214 166.997 91.8291 168.538 88.942C170.08 86.0043 172.069 83.5224 174.606 81.4964C177.092 79.4704 179.977 77.9002 183.259 76.8365C186.541 75.7729 189.823 75.2664 193.205 75.2664C196.587 75.2664 199.67 75.6209 202.505 76.33C205.29 77.0391 207.826 78.1028 210.114 79.521C212.401 80.9392 214.391 82.6614 216.181 84.6874C217.723 86.4602 219.065 88.3849 220.259 90.5122C220.557 91.0694 220.408 91.7785 219.911 92.1837L210.76 99.0215C208.92 100.44 206.384 99.9839 204.892 98.1605C203.897 96.9955 202.803 95.9825 201.51 95.1721C199.073 93.5513 196.239 92.7915 192.907 92.7915C192.061 92.7915 191.166 92.9434 190.221 93.1967C189.276 93.45 188.431 93.8552 187.735 94.311C187.038 94.7669 186.491 95.3747 185.994 96.1344C185.497 96.8942 185.298 97.7046 185.298 98.667C185.298 99.7813 185.596 100.744 186.243 101.554C186.84 102.364 187.635 103.124 188.58 103.732C189.525 104.34 190.669 104.897 191.912 105.302L195.891 106.67C199.72 107.835 203.301 109.152 206.533 110.519C209.766 111.887 212.6 113.609 214.987 115.483C217.375 117.408 219.264 119.687 220.657 122.27C222.049 124.904 222.746 128.095 222.746 131.843C222.746 135.591 221.9 139.188 220.209 142.125C218.518 145.063 216.33 147.545 213.645 149.52C210.959 151.496 207.975 153.015 204.743 153.978C201.461 154.94 198.129 155.446 194.797 155.446C191.465 155.446 187.934 155.092 184.9 154.332C181.817 153.572 178.982 152.509 176.396 151.04C173.76 149.571 171.423 147.747 169.384 145.57C167.544 143.645 165.952 141.467 164.51 139.036C164.162 138.478 164.361 137.719 164.858 137.364L174.456 130.07L174.307 130.02Z"
        fill="#18A9BD" />
    <path
        d="M227.47 76.3809H286.551C287.148 76.3809 287.645 76.8874 287.645 77.4952V90.4617C287.645 92.3865 286.103 93.9566 284.214 93.9566H229.807C227.918 93.9566 226.376 92.3865 226.376 90.4617V77.4952C226.376 76.8874 226.873 76.3809 227.47 76.3809ZM247.114 92.2345H266.658V153.066C266.658 153.674 266.161 154.18 265.564 154.18H248.158C247.562 154.18 247.064 153.674 247.064 153.066V92.2345H247.114Z"
        fill="#18A9BD" />
    <path
        d="M330.018 140.454L333.398 150.432C334.144 152.661 336.183 154.13 338.47 154.13H354.186C354.882 154.13 355.379 153.421 355.13 152.762L328.474 77.4955C328.226 76.8371 327.579 76.3812 326.883 76.3812H306.443L306.493 76.2292C305.697 76.2292 305.001 76.7358 304.753 77.4955L278.146 152.965C277.947 153.522 278.345 154.079 278.892 154.079H294.906C297.193 154.079 299.232 152.61 299.978 150.432L303.444 140.454H330.018ZM316.617 97.3098L325.365 124.398H307.956L316.617 97.3098Z"
        fill="#18A9BD" />
    <path
        d="M357.66 99.2751C359.5 94.4127 362.135 90.2087 365.517 86.6631C368.899 83.1176 372.927 80.3318 377.552 78.2551C382.177 76.2291 387.299 75.2161 392.919 75.2161C396.152 75.2161 399.285 75.6719 402.368 76.5836C405.451 77.4953 408.336 78.7616 411.071 80.3824C413.806 82.0033 416.293 84.0293 418.481 86.3592C420.52 88.5372 422.261 90.9684 423.653 93.6529C423.852 94.0581 423.753 94.5646 423.404 94.8179L413.607 102.213C411.519 103.783 408.684 103.277 407.142 101.149C405.849 99.4271 404.407 98.0089 402.816 96.8439C400.031 94.8685 396.748 93.8555 392.919 93.8555C389.935 93.8555 387.299 94.4127 385.012 95.5776C382.724 96.6919 380.834 98.2621 379.293 100.136C377.751 102.061 376.607 104.29 375.861 106.873C375.066 109.456 374.717 112.191 374.717 115.078C374.717 117.965 375.115 120.599 375.961 123.233C376.806 125.867 378 128.146 379.541 130.172C381.083 132.147 382.973 133.768 385.31 134.933C387.498 136.048 389.935 136.605 392.67 136.706C396.4 136.807 400.13 135.693 403.213 133.616C405.004 132.401 406.645 130.932 407.988 129.21C409.579 127.234 412.364 126.829 414.403 128.349L423.404 135.338C424.101 135.896 424.349 136.858 423.902 137.618C422.609 140.049 421.017 142.278 419.128 144.304C416.84 146.684 414.304 148.71 411.469 150.331C408.634 151.952 405.65 153.218 402.468 154.079C399.334 154.94 396.152 155.345 392.919 155.345C387.299 155.345 382.177 154.282 377.502 152.256C372.828 150.179 368.799 147.343 365.467 143.746C362.135 140.15 359.549 135.896 357.709 131.033C355.869 126.12 354.924 120.852 354.924 115.129C354.924 109.405 355.869 104.138 357.709 99.2751H357.66Z"
        fill="#18A9BD" />
    <path
        d="M434.893 76.3809H453.094C453.492 76.3809 453.79 76.6848 453.79 77.09V153.471C453.79 153.876 453.492 154.18 453.094 154.18H434.893C434.495 154.18 434.196 153.876 434.196 153.471V77.09C434.196 76.6848 434.495 76.3809 434.893 76.3809ZM452.497 108.088L478.557 76.938C478.805 76.6341 479.203 76.4315 479.651 76.4315H496.062C498.598 76.4315 499.891 79.4706 498.201 81.3446L452.497 132.704V108.088ZM474.379 106.569L501.085 149.672C502.279 151.648 500.936 154.18 498.648 154.18H481.541C481.093 154.18 480.745 153.927 480.496 153.573L460.902 119.789L474.379 106.518V106.569Z"
        fill="#18A9BD" />
    <path
        d="M514.81 129.918C516.601 128.551 519.087 128.905 520.48 130.678C521.972 132.603 523.712 134.173 525.602 135.287C528.487 137.01 531.669 137.871 535.101 137.871C536.394 137.871 537.637 137.719 538.731 137.364C539.825 137.01 540.77 136.554 541.566 135.997C542.312 135.439 542.958 134.781 543.406 134.072C543.854 133.312 544.102 132.552 544.102 131.691C544.102 130.678 543.854 129.817 543.356 129.108C542.859 128.399 542.113 127.74 541.168 127.183C540.223 126.576 538.98 126.018 537.438 125.411C535.897 124.803 534.007 124.195 531.769 123.486C528.636 122.321 525.552 121.105 522.469 119.89C519.386 118.674 516.75 117.154 514.462 115.382C512.175 113.609 510.285 111.38 508.793 108.696C507.351 106.062 506.605 102.719 506.605 98.7176C506.605 95.1214 507.351 91.8291 508.892 88.942C510.434 86.0043 512.423 83.5224 514.96 81.4964C517.446 79.4704 520.331 77.9002 523.613 76.8365C526.895 75.7729 530.177 75.2664 533.559 75.2664C536.941 75.2664 540.024 75.6209 542.859 76.33C545.644 77.0391 548.18 78.1028 550.468 79.521C552.755 80.9392 554.745 82.6614 556.535 84.6874C558.126 86.5108 559.569 88.5875 560.762 90.8161C560.961 91.2213 560.862 91.7278 560.514 91.9811L551.015 99.1228C549.225 100.49 546.738 100.035 545.296 98.3124C544.301 97.0968 543.157 96.0838 541.815 95.2227C539.378 93.6019 536.543 92.8421 533.211 92.8421C532.366 92.8421 531.47 92.9941 530.526 93.2474C529.581 93.5006 528.735 93.9058 528.039 94.3617C527.343 94.8175 526.796 95.4253 526.298 96.1851C525.801 96.9449 525.602 97.7553 525.602 98.7176C525.602 99.8319 525.901 100.794 526.547 101.605C527.144 102.415 527.939 103.175 528.884 103.783C529.829 104.391 530.973 104.948 532.216 105.353C533.46 105.758 534.802 106.214 536.195 106.72C540.024 107.885 543.605 109.202 546.837 110.57C550.12 111.988 552.905 113.66 555.292 115.534C557.679 117.458 559.569 119.738 560.911 122.321C562.304 124.955 563 128.146 563 131.894C563 135.642 562.155 139.238 560.464 142.176C558.773 145.114 556.585 147.596 553.899 149.571C551.214 151.546 548.23 153.066 544.948 154.028C541.665 154.991 538.383 155.497 535.001 155.497C531.62 155.497 528.138 155.142 525.105 154.383C522.021 153.623 519.187 152.559 516.601 151.09C513.965 149.622 511.628 147.798 509.589 145.62C507.699 143.594 506.008 141.366 504.566 138.833C504.367 138.428 504.466 137.921 504.814 137.668L514.761 130.07L514.81 129.918Z"
        fill="#18A9BD" />
    <path
        d="M58.1345 85.0426C57.6371 77.9009 54.703 70.8604 48.785 65.3395C40.3306 57.3873 27.5994 55.26 17.1558 60.2238C-0.200453 68.4292 -5.0244 90.0064 5.61812 104.847C8.95012 109.456 13.3762 112.749 18.2499 114.724C20.8359 115.737 23.7203 115.281 25.9583 113.66L54.7527 92.1337C56.9409 90.4622 58.2837 87.8284 58.0847 85.0426H58.1345Z"
        fill="#18A9BD" />
    <path
        d="M188.193 3.53319L24.6618 125.611C22.0478 127.563 21.4819 131.303 23.3979 133.965L40.5967 157.864C42.5126 160.526 46.1849 161.102 48.7989 159.151L212.33 37.0728C214.944 35.1215 215.51 31.3813 213.594 28.719L196.395 4.82045C194.48 2.15813 190.807 1.5818 188.193 3.53319Z"
        fill="#18A9BD" />
</svg>